<svg version="1.1" xmlns="http://www.w3.org/2000/svg" width="500" height="500"><g xmlns="http://www.w3.org/2000/svg" fill="none" fill-rule="nonzero" stroke="#000000" stroke-width="2" stroke-linecap="round" stroke-linejoin="round" stroke-miterlimit="10" stroke-dasharray="" stroke-dashoffset="0" font-family="none" font-weight="none" font-size="none" text-anchor="none" style="mix-blend-mode: normal"><path fill="none" stroke="#000000" d="M75.16 15.89L75.16 29.74M75.16 19.85C76.17 18.67 77.08 17.21 78.38 16.45 79.78 15.63 81.56 15.58 82.97 16.43 83.97 17.04 84.44 18.61 84.44 19.85L84.44 29.74M84.44 19.85C86.31 17.67 88.16 15.05 91.13 15.95 92.84 16.48 93.75 18.18 93.75 19.85L93.75 29.74M101.89 16.29C102.69 15.94 103.55 15.75 104.45 15.75 108.13 15.75 111.11 18.93 111.11 22.85 111.11 26.77 108.13 29.95 104.45 29.95 100.78 29.95 97.81 26.77 97.81 22.85 97.81 20.64 98.75 18.67 100.22 17.37 100.72 16.93 101.28 16.56 101.89 16.29M115.5 19.43C117.63 17.25 119.37 15.05 122.8 15.95 124.78 16.48 125.83 18.18 125.83 19.85L125.83 29.74M115.2 15.89L115.2 29.74M141.68 10L141.68 29.72M141.72 18.84C140.18 16.61 137.44 15.01 134.09 16.31 131.91 17.15 130.68 18.88 130.13 21.13 129.38 24.12 130.88 27.45 133.44 28.99 136.66 30.92 140.09 29.14 141.72 26.75M158.03 15.67L158.03 29.78M158.03 18.69C156.44 16.43 153.62 14.79 150.14 16.12 147.92 16.97 146.63 18.73 146.06 21.03 145.31 24.07 146.84 27.46 149.49 29.03 152.81 31 156.36 29.19 158.03 26.75M163.13 15.82L168.99 30.02M174.84 15.82L168.99 30.02C167.61 32.75 166.47 35.32 163.44 36.61 163.01 36.8 162.62 36.74 162.16 36.75" /><path fill="none" stroke="#000000" d="M119.87 233.16L119.87 220 113.99 232.33 108.1 220 108.1 233.16M130.69 223.88L130.69 233.28M130.69 225.9C129.63 224.38 127.74 223.3 125.43 224.18 123.95 224.75 123.09 225.92 122.71 227.45 122.2 229.48 123.23 231.74 124.99 232.79 127.21 234.1 129.57 232.89 130.69 231.27M134.09 223.98L138 233.45M141.9 223.98L138 233.45C137.07 235.26 136.32 236.98 134.3 237.84 134.01 237.96 133.74 237.93 133.44 237.93" /><path fill="none" stroke="#000000" d="M84.6 106.34C87.82 104.73 90 102.52 92.52 100L92.52 133.27M99 100.12L121.18 100.12 105.34 133.38M132.38 100.68C132.38 109.08 132.38 115.84 132.38 124.24 132.38 126.29 132.6 128.68 133.71 130.51 135.21 132.97 137.86 133.21 140.52 133.21M127.5 110.43L138.89 110.43M147.45 100.1L147.45 133.21M147.45 116.94C149.2 115.18 150.71 113.13 152.79 111.73 155.81 109.71 159.98 109.68 162.9 111.84 164.53 113.05 165.04 115.49 165.26 117.41 165.52 119.81 165.35 122.24 165.35 124.65 165.35 127.5 165.35 130.35 165.35 133.2" /><path fill="none" stroke="#000000" d="M326.39 10C323.2 9.95 321.51 10.71 321.51 13.78L321.51 29.83M318.58 16.06L325.41 16.06M334.64 16.23C335.43 15.88 336.29 15.69 337.2 15.69 340.87 15.69 343.85 18.87 343.85 22.79 343.85 26.71 340.87 29.89 337.2 29.89 333.53 29.89 330.55 26.71 330.55 22.79 330.55 20.58 331.49 18.61 332.97 17.31 333.47 16.87 334.03 16.5 334.64 16.23M347.95 15.7L347.95 29.9M347.95 21.56C348.33 20.42 348.75 19.16 349.4 18.13 349.95 17.27 350.66 16.55 351.52 16.15 352.97 15.48 354.87 15.7 355.71 17.35M371.34 26.62C370.22 28.48 368.31 29.71 366.15 29.71 362.69 29.71 359.89 26.58 359.89 22.71 359.89 18.85 362.69 15.71 366.15 15.71 369.61 15.71 372.41 18.85 372.41 22.71L360.67 22.71M388.3 18.72C386.75 16.47 384.02 14.85 380.66 16.17 378.49 17.01 377.25 18.76 376.7 21.04 375.96 24.06 377.45 27.42 380.02 28.98 383.24 30.93 386.67 29.14 388.3 26.72M404.6 15.61L404.6 29.72M404.6 18.63C403.01 16.37 400.19 14.73 396.72 16.06 394.49 16.91 393.2 18.67 392.63 20.97 391.88 24.01 393.41 27.4 396.06 28.97 399.38 30.94 402.93 29.13 404.6 26.69M419.47 18.74C418.78 17.33 418.04 16.43 416.48 16.01 414.95 15.59 413.2 15.57 411.67 15.98 410.4 16.31 409.01 17.35 408.98 18.83 408.9 22.38 414.64 22.07 416.71 22.9 418.3 23.53 419.76 25.11 419.45 26.85 419.05 29.07 416.45 29.79 414.58 29.9 412.15 30.04 409.87 29.17 408.73 26.82M426.54 10.31C426.54 15.35 426.54 19.41 426.54 24.45 426.54 25.68 426.67 27.11 427.34 28.21 428.23 29.69 429.83 29.83 431.42 29.83M423.61 16.16L430.44 16.16" /><path fill="none" stroke="#000000" d="M329.77 224.33L329.77 233.79M329.77 228.24C330.02 227.48 330.3 226.64 330.74 225.95 331.1 225.37 331.58 224.9 332.15 224.63 333.11 224.18 334.39 224.33 334.94 225.43M345.84 224.27L345.84 233.67M345.84 226.29C344.78 224.77 342.89 223.69 340.58 224.57 339.1 225.14 338.24 226.31 337.86 227.84 337.35 229.87 338.38 232.13 340.14 233.18 342.36 234.49 344.72 233.28 345.84 231.66M349.06 224.15L349.06 233.86M348.59 221.27C348.59 220.97 348.83 220.74 349.12 220.74 349.41 220.74 349.65 220.97 349.65 221.27 349.65 221.56 349.41 221.79 349.12 221.79 348.83 221.79 348.59 221.56 348.59 221.27ZM352.64 226.78C354.07 225.33 355.22 223.86 357.51 224.46 358.83 224.81 359.53 225.94 359.53 227.06L359.53 233.65M352.45 224.42L352.45 233.65M362.92 224.37L366.83 233.84M370.73 224.37L366.83 233.84C365.9 235.65 365.15 237.37 363.13 238.23 362.84 238.35 362.57 238.32 362.27 238.32M379.33 232.03L385.07 232.03M401.15 222.46C399.96 220.06 396.16 219.83 394.72 222.2 393.41 224.38 393.3 227.51 393.69 229.96 393.83 230.84 394.07 231.73 394.63 232.43 394.9 232.77 395.25 233.05 395.63 233.27 397 234.06 398.85 233.95 400.11 232.99 401.38 232.04 401.99 230.29 401.6 228.75 401.22 227.21 399.85 225.97 398.28 225.73 397.01 225.53 395.66 226 394.76 226.91 394.05 227.61 393.86 228.51 393.55 229.43M405.54 220.46L412.51 220.46 408.71 225.49C410.43 225.49 411.96 225.6 412.77 227.39 413.21 228.35 413.22 229.46 412.96 230.49 412.83 231.03 412.61 231.55 412.29 232 411.01 233.76 408.16 234.29 406.34 233.35 405.62 232.98 404.77 232.15 404.27 231.16M415.67 222.27C415.67 221.02 416.69 220 417.95 220 419.21 220 420.23 221.02 420.23 222.27 420.23 223.53 419.21 224.55 417.95 224.55 416.69 224.55 415.67 223.53 415.67 222.27Z" /><path fill="none" stroke="#000000" d="M396.88 107.5c-0.08 0-0.15 0.03-0.22 0.03 0.15-0.71 0.22-1.45 0.22-2.22 0-6.04-4.89-10.94-10.94-10.93-3.36 0-6.33 1.54-8.34 3.93C375.05 93.39 369.98 90 364.06 90 355.6 90 348.75 96.85 348.75 105.31c0 1 0.11 1.96 0.29 2.9C343.8 109.93 340 114.81 340 120.63c0 7.25 5.88 13.13 13.13 13.12h43.74c7.25 0 13.13-5.88 13.13-13.12s-5.88-13.13-13.13-13.13zM352.03 141.16c-1.75 6.07-5.47 7.71-5.47 11.99 0 3.79 2.94 6.85 6.57 6.85s6.56-3.06 6.56-6.85c0-4.29-3.72-5.89-5.47-11.99-0.3-1.11-1.85-1.16-2.19 0z m21.88 0c-1.75 6.07-5.47 7.71-5.47 11.99 0 3.79 2.94 6.85 6.56 6.85s6.56-3.06 6.56-6.85c0-4.29-3.72-5.89-5.47-11.99-0.3-1.11-1.85-1.16-2.18 0z m21.87 0c-1.75 6.07-5.47 7.71-5.47 11.99 0 3.79 2.94 6.85 6.57 6.85s6.56-3.06 6.56-6.85c0-4.29-3.72-5.89-5.47-11.99-0.3-1.11-1.85-1.16-2.19 0z" /><path fill="none" stroke="#000000" d="M89.24 260L89.24 279.92M89.24 260C92.29 260 93.44 260 96 260 98.87 260 101.64 262.31 102.76 264.69 104.36 268.11 104.3 272.15 102.6 275.53 101.36 278.01 98.76 279.87 95.67 279.93 93.53 279.97 91.38 279.92 89.24 279.92M110.91 262.34C112.28 260.92 114.05 260.06 115.97 260.06 120.35 260.06 123.91 264.53 123.91 270.05 123.91 275.57 120.35 280.04 115.97 280.04 111.58 280.04 108.02 275.57 108.02 270.05 108.02 266.95 109.15 264.17 110.91 262.34M139.04 272.37L144.51 272.37C144.51 273.54 144.63 274.84 144.01 276.04 143.49 277.05 142.57 277.92 141.61 278.6 140.1 279.66 138.07 280.11 136.13 279.96 134.17 279.8 132.36 279.03 131.08 277.76 128.87 275.6 127.94 272.63 128 269.76 128.06 267.12 128.97 264.45 130.97 262.4 132.82 260.5 135.95 259.84 138.74 260.26 141.53 260.67 143.35 262.87 144.51 264.89M160.76 260.24L148.61 260.24 148.61 279.95 160.76 279.95M148.61 269.63L156.09 269.63" /><path fill="none" stroke="#000000" d="M74.11 470.23C74.11 473.59 74.11 476.29 74.11 479.65 74.11 480.47 74.2 481.43 74.64 482.16 75.24 483.14 76.3 483.24 77.37 483.24M72.16 474.13L76.72 474.13M82.86 474.17C83.39 473.94 83.97 473.81 84.57 473.81 87.02 473.81 89.01 475.93 89.01 478.55 89.01 481.16 87.02 483.28 84.57 483.28 82.13 483.28 80.14 481.16 80.14 478.55 80.14 477.07 80.77 475.76 81.75 474.89 82.09 474.6 82.46 474.36 82.86 474.17M99.55 470.23C99.55 473.59 99.55 476.29 99.55 479.65 99.55 480.47 99.64 481.43 100.08 482.16 100.68 483.14 101.74 483.24 102.81 483.24M97.6 474.13L102.16 474.13M105.58 470L105.58 483.24M105.58 476.73C106.28 476.03 106.88 475.21 107.72 474.65 108.92 473.84 110.59 473.83 111.76 474.69 112.41 475.17 112.62 476.15 112.7 476.92 112.81 477.88 112.74 478.85 112.74 479.81 112.74 480.95 112.74 482.1 112.74 483.24M123.15 481.1C122.4 482.34 121.13 483.16 119.69 483.16 117.39 483.16 115.52 481.07 115.52 478.49 115.52 475.92 117.39 473.83 119.69 473.83 122 473.83 123.87 475.92 123.87 478.49L116.04 478.49M132.46 473.91L132.46 483.14M132.46 476.55C133.13 475.76 133.74 474.79 134.61 474.28 135.55 473.74 136.73 473.7 137.67 474.27 138.33 474.67 138.66 475.72 138.66 476.55L138.66 483.14M138.66 476.55C139.89 475.1 141.12 473.35 143.1 473.95 144.25 474.3 144.85 475.43 144.85 476.55L144.85 483.14M150.28 474.17C150.81 473.94 151.39 473.81 151.99 473.81 154.44 473.81 156.43 475.93 156.43 478.55 156.43 481.16 154.44 483.28 151.99 483.28 149.55 483.28 147.56 481.16 147.56 478.55 147.56 477.07 148.19 475.76 149.17 474.89 149.51 474.6 149.88 474.36 150.28 474.17M161.88 474.17C162.41 473.94 162.99 473.81 163.59 473.81 166.04 473.81 168.03 475.93 168.03 478.55 168.03 481.16 166.04 483.28 163.59 483.28 161.15 483.28 159.16 481.16 159.16 478.55 159.16 477.07 159.79 475.76 160.77 474.89 161.11 474.6 161.48 474.36 161.88 474.17M170.95 476.27C172.38 474.82 173.53 473.35 175.82 473.95 177.14 474.3 177.84 475.43 177.84 476.55L177.84 483.14M170.76 473.91L170.76 483.14" /><path fill="none" stroke="#000000" d="M68.66 360L68.66 386.23M72.28 360L72.28 386.23M76.59 365C74.11 362.36 70.97 361.41 67.45 362.43 63.63 363.53 62.82 367.94 66.37 370.15 68.91 371.74 72.17 371.87 74.64 373.7 78.04 376.22 76.9 380.91 73.02 382.02 69.5 383.02 66.47 382.14 63.93 379.45M83.01 365.11C84.22 363.69 85.77 362.83 87.46 362.83 91.33 362.83 94.46 367.3 94.46 372.81 94.46 378.33 91.33 382.79 87.46 382.79 83.59 382.79 80.46 378.33 80.46 372.81 80.46 369.71 81.45 366.94 83.01 365.11M99.84 381.93C99.84 382.37 99.48 382.72 99.04 382.72 98.61 382.72 98.25 382.37 98.25 381.93 98.25 381.49 98.6 381.13 99.04 381.13 99.48 381.13 99.84 381.49 99.84 381.93ZM113.25 382.64L113.25 362.68 103.74 375.99 118 375.99M134.05 369.38C133.57 370.81 133.27 372.16 132.15 373.24 130.9 374.43 129.14 375.12 127.41 374.98 124.98 374.79 122.76 373.01 122.05 370.68 121.34 368.36 122.18 365.64 124.08 364.12 125.69 362.84 127.99 362.5 129.94 363.18 132.41 364.04 133.47 366.19 133.85 368.64 134.35 371.84 134.11 375.16 133.14 378.26 132.23 381.18 130.05 382.94 126.85 382.64 124.87 382.45 123.59 381.59 122.64 379.83M150.16 369.38C149.68 370.81 149.38 372.16 148.26 373.24 147.01 374.43 145.25 375.12 143.52 374.98 141.09 374.79 138.87 373.01 138.16 370.68 137.45 368.36 138.29 365.64 140.19 364.12 141.8 362.84 144.1 362.5 146.05 363.18 148.52 364.04 149.58 366.19 149.96 368.64 150.46 371.84 150.22 375.16 149.25 378.26 148.34 381.18 146.16 382.94 142.96 382.64 140.98 382.45 139.7 381.59 138.75 379.83M156.57 365.11C157.78 363.69 159.33 362.83 161.02 362.83 164.89 362.83 168.02 367.3 168.02 372.81 168.02 378.33 164.89 382.79 161.02 382.79 157.15 382.79 154.02 378.33 154.02 372.81 154.02 369.71 155.01 366.94 156.57 365.11M181.32 382.64L181.32 362.68 171.81 375.99 186.07 375.99" /><path fill="none" stroke="#000000" d="M353.73 268.82C353.04 267.41 352.3 266.51 350.74 266.09 349.21 265.67 347.46 265.65 345.93 266.06 344.66 266.39 343.27 267.43 343.24 268.91 343.16 272.46 348.9 272.15 350.97 272.98 352.56 273.61 354.02 275.19 353.71 276.93 353.31 279.15 350.71 279.87 348.84 279.98 346.41 280.12 344.13 279.25 342.99 276.9M357.87 260L357.87 280.21M373.55 276.7C372.43 278.56 370.52 279.79 368.36 279.79 364.9 279.79 362.1 276.66 362.1 272.79 362.1 268.93 364.9 265.79 368.36 265.79 371.82 265.79 374.62 268.93 374.62 272.79L362.88 272.79M390.17 276.7C389.05 278.56 387.14 279.79 384.98 279.79 381.52 279.79 378.72 276.66 378.72 272.79 378.72 268.93 381.52 265.79 384.98 265.79 388.44 265.79 391.24 268.93 391.24 272.79L379.5 272.79M395.34 265.77L395.34 286.21M395.34 276.84C396.87 279.09 399.58 280.71 402.91 279.4 405.05 278.55 406.28 276.8 406.83 274.53 407.55 271.51 406.08 268.15 403.54 266.6 400.35 264.65 396.95 266.44 395.34 268.85" /><path fill="none" stroke="#000000" d="M339.42 475.85C338.95 474.9 338.46 474.3 337.43 474.02 336.4 473.75 335.24 473.74 334.21 474.01 333.38 474.23 332.44 474.92 332.42 475.91 332.37 478.28 336.19 478.07 337.57 478.62 338.63 479.04 339.62 480.1 339.4 481.25 339.13 482.74 337.39 483.21 336.15 483.28 334.53 483.38 333.01 482.8 332.25 481.23M342.64 473.64L342.64 483.35M342.18 470.76C342.18 470.46 342.42 470.23 342.7 470.23 343 470.23 343.24 470.46 343.24 470.76 343.24 471.05 343 471.28 342.7 471.28 342.42 471.28 342.18 471.05 342.18 470.76ZM346.23 476.27C347.65 474.82 348.81 473.35 351.09 473.95 352.42 474.3 353.12 475.43 353.12 476.55L353.12 483.14M346.03 473.91L346.03 483.14M363.71 475.83C362.69 474.34 360.86 473.25 358.62 474.13 357.18 474.69 356.34 475.86 355.98 477.38 355.5 479.4 356.49 481.64 358.19 482.67 360.34 483.98 362.63 482.78 363.71 481.17M374.11 481.1C373.36 482.34 372.08 483.16 370.64 483.16 368.35 483.16 366.48 481.07 366.48 478.49 366.48 475.92 368.35 473.83 370.64 473.83 372.95 473.83 374.82 475.92 374.82 478.49L367 478.49M383.41 470L392.28 470 385.94 483.31M394.81 473.81L394.81 487.44M394.81 481.2C395.83 482.69 397.64 483.77 399.86 482.9 401.28 482.33 402.11 481.17 402.48 479.65 402.95 477.64 401.98 475.4 400.28 474.36 398.15 473.06 395.88 474.26 394.81 475.87M405.36 473.91L405.36 483.14M405.36 476.55C406.02 475.76 406.63 474.79 407.5 474.28 408.44 473.74 409.63 473.7 410.56 474.27 411.23 474.67 411.56 475.72 411.56 476.55L411.56 483.14M411.56 476.55C412.78 475.1 414.01 473.35 416 473.95 417.14 474.3 417.75 475.43 417.75 476.55L417.75 483.14" /><path fill="none" stroke="#000000" d="M290.06 356.36C293.28 354.75 295.46 352.54 297.98 350.02L297.98 383.29M308.71 353.93C310.72 351.56 313.31 350.14 316.13 350.14 322.57 350.14 327.8 357.58 327.8 366.77 327.8 375.96 322.57 383.4 316.13 383.4 309.68 383.4 304.46 375.96 304.46 366.77 304.46 361.6 306.11 356.99 308.71 353.93M334.11 350.12L334.11 383.23M334.11 366.96C335.86 365.2 337.37 363.15 339.45 361.75 342.47 359.73 346.64 359.7 349.56 361.86 351.19 363.07 351.7 365.51 351.92 367.43 352.18 369.83 352.01 372.26 352.01 374.67 352.01 377.52 352.01 380.37 352.01 383.22M375.2 357.94C375.06 350.82 384.05 348.56 389.48 350.87 390.46 351.28 391.39 351.84 392.14 352.59 393.85 354.3 394.43 356.92 394 359.29 393.42 362.42 391.67 365.17 389.45 367.4L373.61 383.17 395.79 383.17M422.52 361.04C421.73 363.43 421.23 365.68 419.35 367.47 417.27 369.47 414.34 370.61 411.45 370.38 407.41 370.06 403.71 367.09 402.53 363.21 401.34 359.34 402.75 354.81 405.92 352.28 408.59 350.15 412.42 349.58 415.68 350.71 419.79 352.14 421.56 355.72 422.2 359.81 423.03 365.15 422.62 370.68 421.01 375.84 419.49 380.72 415.87 383.65 410.53 383.14 407.23 382.82 405.09 381.39 403.51 378.47M428.96 359.9L428.96 382.98M428.96 366.49C430.64 364.52 432.16 362.1 434.33 360.83 436.68 359.47 439.64 359.39 441.98 360.8 443.65 361.81 444.45 364.43 444.45 366.49L444.45 382.98M444.45 366.49C447.54 362.87 450.62 358.5 455.57 360 458.42 360.87 459.94 363.71 459.94 366.49L459.94 382.98" /><path fill="none" stroke="#000000" d="M250 0L250 500" /><path fill="none" stroke="#000000" d="M0 250L500 250" /></g></svg>