<svg version="1.1" xmlns="http://www.w3.org/2000/svg" width="500" height="500"><g xmlns="http://www.w3.org/2000/svg" fill="none" fill-rule="nonzero" stroke="#000000" stroke-width="2" stroke-linecap="round" stroke-linejoin="round" stroke-miterlimit="10" stroke-dasharray="" stroke-dashoffset="0" font-family="none" font-weight="none" font-size="none" text-anchor="none" style="mix-blend-mode: normal"><path fill="none" stroke="#000000" d="M68.2 10.43C68.2 16.31 68.2 21.05 68.2 26.93 68.2 28.36 68.35 30.03 69.13 31.31 70.18 33.04 72.03 33.2 73.89 33.2M64.78 17.26L72.75 17.26M78.75 16.73C78.75 16.73 78.75 27.77 78.75 27.8 78.75 30.16 79.52 31.24 80.14 31.98 81.48 33.59 85.01 33.37 86.09 33 88.77 32.1 89.74 30.12 91.27 28.53M91.27 16.73L91.27 33.26M109.43 29.46C108.12 31.64 105.9 33.06 103.37 33.06 99.34 33.06 96.07 29.41 96.07 24.9 96.07 20.39 99.34 16.73 103.37 16.73 107.41 16.73 110.68 20.39 110.68 24.9L96.98 24.9M127.99 20.27C127.19 18.62 126.32 17.57 124.51 17.08 122.72 16.59 120.68 16.57 118.89 17.05 117.41 17.44 115.78 18.65 115.75 20.38 115.66 24.52 122.35 24.16 124.77 25.12 126.62 25.85 128.33 27.7 127.97 29.72 127.5 32.32 124.46 33.15 122.28 33.28 119.45 33.45 116.79 32.44 115.46 29.69M146.52 10L146.52 33.01M146.57 20.31C144.77 17.72 141.58 15.85 137.66 17.36 135.14 18.34 133.68 20.36 133.04 22.98 132.18 26.47 133.92 30.35 136.91 32.15 140.67 34.4 144.67 32.33 146.57 29.54M165.6 16.62L165.6 33.07M165.6 20.14C163.74 17.5 160.44 15.59 156.4 17.14 153.8 18.13 152.3 20.19 151.63 22.86 150.75 26.42 152.54 30.37 155.63 32.2 159.51 34.5 163.64 32.38 165.6 29.54M171.55 16.79L178.38 33.36M185.22 16.79L178.38 33.36C176.77 36.54 175.45 39.54 171.91 41.05 171.41 41.26 170.94 41.2 170.41 41.21" /><path fill="none" stroke="#000000" d="M118.59 231.45L118.59 215 111.23 230.41 103.88 215 103.88 231.45M132.12 219.86L132.12 231.61M132.12 222.37C130.78 220.49 128.43 219.12 125.55 220.23 123.69 220.94 122.61 222.41 122.14 224.32 121.5 226.86 122.78 229.68 125 230.99 127.77 232.63 130.72 231.12 132.12 229.09M136.37 219.98L141.25 231.82M146.13 219.98L141.25 231.82C140.09 234.09 139.16 236.23 136.63 237.31 136.26 237.46 135.94 237.42 135.56 237.42" /><path fill="none" stroke="#000000" d="M84.45 106.62C87.67 105.01 89.85 102.8 92.37 100.28L92.37 133.55M109.3 100C106.26 100 103.03 101.46 101.77 103.37 100.52 105.28 100.09 107.5 101.27 109.5 102.65 111.82 105.38 112.98 108.01 113.61 110.64 114.24 113.4 114.53 115.79 115.81 118.7 117.36 120.78 120.36 121.21 123.63 121.56 126.28 120.77 129.16 118.79 130.95 116.86 132.69 114.14 133.2 111.56 133.38 107.53 133.66 102.95 133.05 100.46 129.87 98.25 127.05 98.42 122.82 100.32 119.79 102.23 116.76 105.58 114.86 109.06 114.04 110.74 113.65 112.47 113.49 114.13 113.02 115.79 112.56 117.43 111.76 118.45 110.37 120 108.28 120.26 105.08 118.56 103.11 116.63 100.87 112.21 100 109.3 100ZM132.53 100.96C132.53 109.36 132.53 116.12 132.53 124.52 132.53 126.57 132.75 128.96 133.86 130.79 135.36 133.25 138.01 133.49 140.67 133.49M127.65 110.71L139.04 110.71M147.6 100.38L147.6 133.49M147.6 117.22C149.35 115.46 150.86 113.41 152.94 112.01 155.96 109.99 160.13 109.96 163.05 112.12 164.68 113.33 165.19 115.77 165.41 117.69 165.67 120.09 165.5 122.52 165.5 124.93 165.5 127.78 165.5 130.63 165.5 133.48" /><path fill="none" stroke="#000000" d="M318.29 10C314.56 9.94 312.6 10.83 312.6 14.41L312.6 33.13M309.18 17.06L317.15 17.06M327.91 17.27C328.82 16.86 329.84 16.63 330.89 16.63 335.19 16.63 338.66 20.34 338.66 24.92 338.66 29.5 335.19 33.21 330.89 33.21 326.62 33.21 323.15 29.5 323.15 24.92 323.15 22.35 324.24 20.05 325.97 18.52 326.55 18.01 327.21 17.59 327.91 17.27M343.44 16.65L343.44 33.21M343.44 23.48C343.88 22.15 344.37 20.69 345.13 19.48 345.78 18.48 346.61 17.65 347.61 17.18 349.3 16.39 351.51 16.65 352.5 18.57M370.74 29.39C369.42 31.57 367.19 32.99 364.68 32.99 360.63 32.99 357.38 29.34 357.38 24.83 357.38 20.32 360.64 16.66 364.68 16.66 368.71 16.66 371.98 20.32 371.98 24.83L358.29 24.83M390.51 20.18C388.71 17.55 385.51 15.66 381.6 17.19 379.08 18.18 377.63 20.22 376.98 22.88 376.13 26.41 377.86 30.33 380.86 32.14 384.62 34.42 388.62 32.32 390.51 29.51M409.54 16.55L409.54 33M409.54 20.07C407.68 17.43 404.38 15.52 400.34 17.07 397.74 18.06 396.24 20.12 395.58 22.79 394.69 26.35 396.48 30.3 399.56 32.13 403.44 34.43 407.58 32.31 409.54 29.47M426.88 20.2C426.09 18.55 425.21 17.5 423.39 17.01 421.61 16.52 419.56 16.5 417.77 16.98 416.31 17.37 414.68 18.58 414.63 20.31 414.55 24.45 421.24 24.09 423.66 25.05 425.5 25.78 427.23 27.63 426.86 29.65 426.39 32.25 423.36 33.08 421.18 33.21 418.34 33.38 415.68 32.37 414.36 29.62M435.13 10.36C435.13 16.24 435.13 20.98 435.13 26.86 435.13 28.29 435.27 29.96 436.06 31.24 437.11 32.97 438.97 33.13 440.83 33.13M431.72 17.19L439.69 17.19" /><path fill="none" stroke="#000000" d="M318.07 220.42L318.07 232.25M318.07 225.3C318.39 224.35 318.74 223.31 319.28 222.44 319.75 221.73 320.33 221.13 321.06 220.8 322.25 220.23 323.84 220.42 324.55 221.79M338.16 220.35L338.16 232.1M338.16 222.86C336.83 220.98 334.47 219.61 331.59 220.72 329.74 221.43 328.66 222.9 328.19 224.81 327.56 227.35 328.83 230.17 331.05 231.48 333.81 233.12 336.76 231.61 338.16 229.58M342.19 220.2L342.19 232.33M341.61 216.59C341.61 216.23 341.89 215.93 342.26 215.93 342.63 215.93 342.93 216.23 342.93 216.59 342.93 216.96 342.63 217.25 342.26 217.25 341.89 217.25 341.61 216.96 341.61 216.59ZM346.66 223.48C348.45 221.67 349.88 219.83 352.75 220.58 354.39 221.02 355.27 222.44 355.27 223.83L355.27 232.07M346.43 220.53L346.43 232.07M359.51 220.47L364.39 232.31M369.27 220.47L364.39 232.31C363.25 234.58 362.31 236.72 359.77 237.8 359.41 237.95 359.08 237.91 358.7 237.91M380.02 230.04L387.19 230.04M397.73 215.65L408.81 215.65 400.89 232.28M413.56 215.58L422.27 215.58 417.52 221.88C419.67 221.88 421.58 222.01 422.61 224.24 423.15 225.44 423.16 226.84 422.84 228.12 422.67 228.79 422.4 229.45 422 230.01 420.4 232.21 416.83 232.87 414.56 231.7 413.66 231.24 412.59 230.2 411.98 228.96M426.23 217.85C426.23 216.28 427.5 215 429.07 215 430.64 215 431.92 216.28 431.92 217.85 431.92 219.42 430.64 220.7 429.07 220.7 427.5 220.7 426.23 219.42 426.23 217.85Z" /><path fill="none" stroke="#000000" d="M396.88 107.5c-0.08 0-0.15 0.03-0.22 0.03 0.15-0.71 0.22-1.45 0.22-2.22 0-6.04-4.89-10.94-10.94-10.93-3.36 0-6.33 1.54-8.34 3.93C375.05 93.39 369.98 90 364.06 90 355.6 90 348.75 96.85 348.75 105.31c0 1 0.11 1.96 0.29 2.9C343.8 109.93 340 114.81 340 120.63c0 7.25 5.88 13.13 13.13 13.12h43.74c7.25 0 13.13-5.88 13.13-13.12s-5.88-13.13-13.13-13.13zM352.03 141.16c-1.75 6.07-5.47 7.71-5.47 11.99 0 3.79 2.94 6.85 6.57 6.85s6.56-3.06 6.56-6.85c0-4.29-3.72-5.89-5.47-11.99-0.3-1.11-1.85-1.16-2.19 0z m21.88 0c-1.75 6.07-5.47 7.71-5.47 11.99 0 3.79 2.94 6.85 6.56 6.85s6.56-3.06 6.56-6.85c0-4.29-3.72-5.89-5.47-11.99-0.3-1.11-1.85-1.16-2.18 0z m21.87 0c-1.75 6.07-5.47 7.71-5.47 11.99 0 3.79 2.94 6.85 6.57 6.85s6.56-3.06 6.56-6.85c0-4.29-3.72-5.89-5.47-11.99-0.3-1.11-1.85-1.16-2.19 0z" /><path fill="none" stroke="#000000" d="M47.12 314.52L47.12 334.44M47.12 314.52C50.17 314.52 51.32 314.52 53.88 314.52 56.75 314.52 59.52 316.83 60.64 319.21 62.24 322.63 62.18 326.67 60.48 330.05 59.24 332.53 56.64 334.39 53.55 334.45 51.41 334.49 49.26 334.44 47.12 334.44M68.79 316.86C70.16 315.44 71.93 314.58 73.85 314.58 78.23 314.58 81.79 319.05 81.79 324.57 81.79 330.09 78.23 334.56 73.85 334.56 69.46 334.56 65.9 330.09 65.9 324.57 65.9 321.47 67.03 318.69 68.79 316.86M96.92 326.89L102.39 326.89C102.39 328.06 102.51 329.36 101.89 330.56 101.37 331.57 100.45 332.44 99.49 333.12 97.98 334.18 95.95 334.63 94.01 334.48 92.05 334.32 90.24 333.55 88.96 332.28 86.75 330.12 85.82 327.15 85.88 324.28 85.94 321.64 86.85 318.97 88.85 316.92 90.7 315.02 93.83 314.36 96.62 314.78 99.41 315.19 101.23 317.39 102.39 319.41M118.64 314.76L106.49 314.76 106.49 334.47 118.64 334.47M106.49 324.15L113.97 324.15M136.27 312L136.27 338.23M139.89 312L139.89 338.23M144.2 317C141.72 314.36 138.58 313.41 135.06 314.43 131.24 315.53 130.43 319.94 133.98 322.15 136.52 323.74 139.78 323.87 142.25 325.7 145.65 328.22 144.51 332.91 140.63 334.02 137.11 335.02 134.08 334.14 131.54 331.45M150.62 317.11C151.83 315.69 153.38 314.83 155.07 314.83 158.94 314.83 162.07 319.3 162.07 324.81 162.07 330.33 158.94 334.79 155.07 334.79 151.2 334.79 148.07 330.33 148.07 324.81 148.07 321.71 149.06 318.94 150.62 317.11M167.45 333.93C167.45 334.37 167.09 334.72 166.65 334.72 166.22 334.72 165.86 334.37 165.86 333.93 165.86 333.49 166.21 333.13 166.65 333.13 167.09 333.13 167.45 333.49 167.45 333.93ZM180.86 334.64L180.86 314.68 171.35 327.99 185.61 327.99M195.68 314.6C193.86 314.6 191.92 315.47 191.16 316.62 190.41 317.76 190.16 319.1 190.86 320.29 191.69 321.69 193.33 322.38 194.9 322.76 196.48 323.14 198.14 323.32 199.57 324.08 201.32 325.01 202.57 326.81 202.83 328.77 203.04 330.36 202.56 332.09 201.37 333.17 200.22 334.21 198.59 334.52 197.04 334.63 194.62 334.79 191.87 334.43 190.38 332.52 189.05 330.83 189.15 328.29 190.29 326.47 191.44 324.65 193.45 323.51 195.54 323.02 196.54 322.79 197.58 322.69 198.58 322.41 199.57 322.13 200.56 321.65 201.17 320.82 202.1 319.56 202.26 317.64 201.23 316.46 200.08 315.12 197.43 314.6 195.68 314.6Z" /><path fill="none" stroke="#000000" d="M52.66 376.4L60.14 356.53 67.61 376.4 65.23 370.33 55.46 370.33M71.71 356.52L71.71 376.44M71.71 356.52C74.76 356.52 75.91 356.52 78.47 356.52 81.34 356.52 84.11 358.83 85.23 361.21 86.83 364.63 86.77 368.67 85.07 372.05 83.83 374.53 81.23 376.39 78.14 376.45 76 376.49 73.85 376.44 71.71 376.44M90.49 376.4L97.97 356.53 105.44 376.4 103.06 370.33 93.29 370.33M131.85 354L131.85 380.23M135.47 354L135.47 380.23M139.78 359C137.3 356.36 134.16 355.41 130.64 356.43 126.82 357.53 126.01 361.94 129.56 364.15 132.1 365.74 135.36 365.87 137.83 367.7 141.23 370.22 140.09 374.91 136.21 376.02 132.69 377.02 129.66 376.14 127.12 373.45M144.6 361.51C144.52 357.24 149.91 355.89 153.17 357.27 153.76 357.52 154.32 357.85 154.77 358.3 155.79 359.33 156.14 360.9 155.88 362.33 155.54 364.2 154.49 365.85 153.16 367.19L143.65 376.66 156.96 376.66M162.34 375.93C162.34 376.37 161.98 376.72 161.54 376.72 161.11 376.72 160.75 376.37 160.75 375.93 160.75 375.49 161.1 375.13 161.54 375.13 161.98 375.13 162.34 375.49 162.34 375.93ZM168.79 359.11C170 357.69 171.55 356.83 173.24 356.83 177.11 356.83 180.24 361.3 180.24 366.81 180.24 372.33 177.11 376.79 173.24 376.79 169.37 376.79 166.24 372.33 166.24 366.81 166.24 363.71 167.23 360.94 168.79 359.11M184.98 361.51C184.9 357.24 190.29 355.89 193.55 357.27 194.14 357.52 194.7 357.85 195.15 358.3 196.17 359.33 196.52 360.9 196.26 362.33 195.92 364.2 194.87 365.85 193.54 367.19L184.03 376.66 197.34 376.66" /><path fill="none" stroke="#000000" d="M63.02 398.76L50.87 398.76 50.87 418.47 63.02 418.47M50.87 408.15L58.35 408.15M73.67 398.39L73.67 418.08M67.13 398.39L80.22 398.39M84.32 398.36L84.32 418.17M97.4 398.36L97.4 418.17M84.32 408.5L97.4 408.5M123.82 396L123.82 422.23M127.44 396L127.44 422.23M131.75 401C129.27 398.36 126.13 397.41 122.61 398.43 118.79 399.53 117.98 403.94 121.53 406.15 124.07 407.74 127.33 407.87 129.8 409.7 133.2 412.22 132.06 416.91 128.18 418.02 124.66 419.02 121.63 418.14 119.09 415.45M137.52 398.75L147.98 398.75 142.27 406.31C144.86 406.31 147.15 406.46 148.37 409.14 149.03 410.59 149.05 412.26 148.66 413.8 148.46 414.61 148.14 415.4 147.65 416.07 145.73 418.7 141.46 419.5 138.73 418.1 137.65 417.54 136.37 416.3 135.62 414.81M154.62 398.75L165.08 398.75 159.37 406.31C161.96 406.31 164.25 406.46 165.47 409.14 166.13 410.59 166.15 412.26 165.76 413.8 165.56 414.61 165.24 415.4 164.75 416.07 162.83 418.7 158.56 419.5 155.83 418.1 154.75 417.54 153.47 416.3 152.72 414.81M181.14 398.66L171.63 398.66C171.63 398.66 170.68 407.22 170.68 407.22 170.7 406.79 172.18 406.11 172.52 405.96 173.25 405.64 174.05 405.44 174.86 405.38 176.49 405.28 178.4 405.42 179.87 406.18 182.53 407.56 183.65 411.43 182.71 414.16 181.83 416.76 179.43 418.36 176.75 418.62 174.13 418.88 170.27 417.89 169.82 414.81M199.08 405.38C198.6 406.81 198.3 408.16 197.18 409.24 195.93 410.43 194.17 411.12 192.44 410.98 190.01 410.79 187.79 409.01 187.08 406.68 186.37 404.36 187.21 401.64 189.11 400.12 190.72 398.84 193.02 398.5 194.97 399.18 197.44 400.04 198.5 402.19 198.88 404.64 199.38 407.84 199.14 411.16 198.17 414.26 197.26 417.18 195.08 418.94 191.88 418.64 189.9 418.45 188.62 417.59 187.67 415.83" /><path fill="none" stroke="#000000" d="M350.18 270.3C349.38 268.65 348.51 267.6 346.7 267.11 344.91 266.62 342.87 266.6 341.08 267.08 339.6 267.47 337.97 268.68 337.94 270.41 337.85 274.55 344.54 274.19 346.96 275.15 348.81 275.88 350.52 277.73 350.16 279.75 349.69 282.35 346.65 283.18 344.47 283.31 341.64 283.48 338.98 282.47 337.65 279.72M355.01 260L355.01 283.59M373.31 279.49C371.99 281.67 369.77 283.09 367.25 283.09 363.21 283.09 359.95 279.44 359.95 274.93 359.95 270.42 363.22 266.76 367.25 266.76 371.28 266.76 374.55 270.42 374.55 274.93L360.86 274.93M392.7 279.49C391.38 281.67 389.16 283.09 386.64 283.09 382.6 283.09 379.34 279.44 379.34 274.93 379.34 270.42 382.61 266.76 386.64 266.76 390.67 266.76 393.94 270.42 393.94 274.93L380.25 274.93M398.73 266.74L398.73 290.58M398.73 279.66C400.51 282.28 403.67 284.17 407.55 282.64 410.05 281.65 411.49 279.61 412.13 276.96 412.97 273.43 411.25 269.52 408.29 267.7 404.57 265.43 400.6 267.52 398.73 270.34" /><path fill="none" stroke="#000000" d="M330.52 472.31C329.95 471.13 329.33 470.37 328.03 470.03 326.75 469.68 325.3 469.66 324.02 470 322.97 470.28 321.8 471.15 321.77 472.38 321.71 475.34 326.49 475.08 328.22 475.77 329.54 476.29 330.76 477.62 330.51 479.06 330.17 480.92 328 481.51 326.44 481.6 324.42 481.72 322.52 481 321.57 479.03M334.56 469.55L334.56 481.68M333.97 465.94C333.97 465.58 334.27 465.28 334.63 465.28 335 465.28 335.29 465.58 335.29 465.94 335.29 466.31 335 466.6 334.63 466.6 334.27 466.6 333.97 466.31 333.97 465.94ZM339.03 472.83C340.82 471.02 342.26 469.18 345.12 469.93 346.77 470.37 347.64 471.79 347.64 473.18L347.64 481.42M338.8 469.88L338.8 481.42M360.89 472.29C359.61 470.41 357.32 469.06 354.53 470.16 352.72 470.86 351.69 472.32 351.23 474.22 350.61 476.74 351.85 479.54 353.99 480.84 356.68 482.46 359.54 480.97 360.89 478.95M373.89 478.87C372.95 480.42 371.36 481.44 369.56 481.44 366.68 481.44 364.35 478.83 364.35 475.61 364.35 472.39 366.68 469.78 369.56 469.78 372.44 469.78 374.78 472.39 374.78 475.61L365 475.61M385.52 465L396.61 465 388.69 481.63M399.77 469.76L399.77 486.79M399.77 478.99C401.05 480.86 403.3 482.21 406.08 481.12 407.86 480.41 408.89 478.96 409.34 477.06 409.95 474.54 408.72 471.75 406.6 470.45 403.94 468.82 401.11 470.32 399.77 472.33M412.95 469.88L412.95 481.42M412.95 473.18C413.79 472.19 414.54 470.98 415.63 470.35 416.8 469.67 418.28 469.62 419.46 470.33 420.29 470.83 420.69 472.15 420.69 473.18L420.69 481.42M420.69 473.18C422.24 471.37 423.78 469.18 426.25 469.93 427.68 470.37 428.43 471.79 428.43 473.18L428.43 481.42" /><path fill="none" stroke="#000000" d="M307.31 350C304.27 350 301.04 351.46 299.78 353.37 298.53 355.28 298.1 357.5 299.28 359.5 300.66 361.82 303.39 362.98 306.02 363.61 308.65 364.24 311.41 364.53 313.8 365.81 316.71 367.36 318.79 370.36 319.22 373.63 319.57 376.28 318.78 379.16 316.8 380.95 314.87 382.69 312.15 383.2 309.57 383.38 305.54 383.66 300.96 383.05 298.47 379.87 296.26 377.05 296.43 372.82 298.33 369.79 300.24 366.76 303.59 364.86 307.07 364.04 308.75 363.65 310.48 363.49 312.14 363.02 313.8 362.56 315.44 361.76 316.46 360.37 318.01 358.28 318.27 355.08 316.57 353.11 314.64 350.87 310.22 350 307.31 350ZM325.66 350.38L325.66 383.49M325.66 367.22C327.41 365.46 328.92 363.41 331 362.01 334.02 359.99 338.19 359.96 341.11 362.12 342.74 363.33 343.25 365.77 343.47 367.69 343.73 370.09 343.56 372.52 343.56 374.93 343.56 377.78 343.56 380.63 343.56 383.48M368.33 350.26L385.76 350.26 376.25 362.85C380.56 362.85 384.38 363.11 386.41 367.58 387.51 369.99 387.54 372.78 386.89 375.34 386.55 376.69 386.02 378 385.2 379.13 382.01 383.51 374.89 384.84 370.34 382.5 368.54 381.57 366.41 379.5 365.16 377.02M395.25 358.2C395.11 351.08 404.1 348.82 409.53 351.13 410.51 351.54 411.44 352.1 412.19 352.85 413.9 354.56 414.48 357.18 414.05 359.55 413.47 362.68 411.72 365.43 409.5 367.66L393.66 383.43 415.84 383.43M422.16 360.16L422.16 383.24M422.16 366.75C423.84 364.78 425.36 362.36 427.53 361.09 429.88 359.73 432.84 359.65 435.18 361.06 436.85 362.07 437.65 364.69 437.65 366.75L437.65 383.24M437.65 366.75C440.74 363.13 443.82 358.76 448.77 360.26 451.62 361.13 453.14 363.97 453.14 366.75L453.14 383.24" /><path fill="none" stroke="#000000" d="M250 0L250 500" /><path fill="none" stroke="#000000" d="M0 250L500 250" /></g></svg>