<svg version="1.1" xmlns="http://www.w3.org/2000/svg" width="500" height="500"><g xmlns="http://www.w3.org/2000/svg" fill="none" fill-rule="nonzero" stroke="#000000" stroke-width="2" stroke-linecap="round" stroke-linejoin="round" stroke-miterlimit="10" stroke-dasharray="" stroke-dashoffset="0" font-family="none" font-weight="none" font-size="none" text-anchor="none" style="mix-blend-mode: normal"><path fill="none" stroke="#000000" d="M72.2 10L72.2 29.69M65.66 10L78.75 10M82.85 10.44L82.85 30.3M82.85 20.54C83.9 19.48 84.81 18.25 86.05 17.41 87.86 16.2 90.37 16.18 92.12 17.48 93.1 18.2 93.41 19.67 93.53 20.82 93.69 22.26 93.59 23.72 93.59 25.16 93.59 26.87 93.59 28.58 93.59 30.3M97.76 16.18C97.76 16.18 97.76 25.64 97.76 25.66 97.76 27.69 98.43 28.62 98.96 29.25 100.11 30.63 103.13 30.44 104.06 30.13 106.35 29.36 107.19 27.65 108.5 26.3M108.5 16.18L108.5 30.34M112.61 16.17L112.61 30.37M112.61 22.03C112.99 20.89 113.41 19.63 114.06 18.6 114.61 17.74 115.32 17.02 116.18 16.62 117.63 15.95 119.53 16.17 120.37 17.82M135.29 19.21C134.6 17.8 133.86 16.9 132.3 16.48 130.77 16.06 129.02 16.04 127.49 16.45 126.22 16.78 124.83 17.82 124.8 19.3 124.72 22.85 130.46 22.54 132.53 23.37 134.12 24 135.58 25.58 135.27 27.32 134.87 29.54 132.27 30.26 130.4 30.37 127.97 30.51 125.69 29.64 124.55 27.29M151.17 10.41L151.17 30.13M151.22 19.25C149.67 17.02 146.94 15.42 143.58 16.72 141.41 17.56 140.17 19.29 139.62 21.54 138.88 24.53 140.37 27.86 142.94 29.4 146.16 31.33 149.59 29.55 151.22 27.16M167.52 16.08L167.52 30.19M167.52 19.1C165.93 16.84 163.11 15.2 159.64 16.53 157.41 17.38 156.12 19.14 155.55 21.44 154.8 24.48 156.33 27.87 158.98 29.44 162.3 31.41 165.85 29.6 167.52 27.16M172.63 16.23L178.48 30.43M184.34 16.23L178.48 30.43C177.1 33.16 175.97 35.73 172.94 37.02 172.51 37.21 172.11 37.15 171.65 37.16" /><path fill="none" stroke="#000000" d="M119.87 233.16L119.87 220 113.99 232.33 108.1 220 108.1 233.16M130.69 223.88L130.69 233.28M130.69 225.9C129.63 224.38 127.74 223.3 125.43 224.18 123.95 224.75 123.09 225.92 122.71 227.45 122.2 229.48 123.23 231.74 124.99 232.79 127.21 234.1 129.57 232.89 130.69 231.27M134.09 223.98L138 233.45M141.9 223.98L138 233.45C137.07 235.26 136.32 236.98 134.3 237.84 134.01 237.96 133.74 237.93 133.44 237.93" /><path fill="none" stroke="#000000" d="M84.6 106.36C87.82 104.75 90 102.54 92.52 100.02L92.52 133.29M102.17 100L119.6 100 110.09 112.59C114.4 112.59 118.22 112.85 120.25 117.32 121.35 119.73 121.38 122.52 120.73 125.08 120.39 126.43 119.86 127.74 119.04 128.87 115.85 133.25 108.73 134.58 104.18 132.24 102.38 131.31 100.25 129.24 99 126.76M132.38 100.7C132.38 109.1 132.38 115.86 132.38 124.26 132.38 126.31 132.6 128.7 133.71 130.53 135.21 132.99 137.86 133.23 140.52 133.23M127.5 110.45L138.89 110.45M147.45 100.12L147.45 133.23M147.45 116.96C149.2 115.2 150.71 113.15 152.79 111.75 155.81 109.73 159.98 109.7 162.9 111.86 164.53 113.07 165.04 115.51 165.26 117.43 165.52 119.83 165.35 122.26 165.35 124.67 165.35 127.52 165.35 130.37 165.35 133.22" /><path fill="none" stroke="#000000" d="M339.24 10L339.24 29.92M339.24 10C342.29 10 343.44 10 346 10 348.87 10 351.64 12.31 352.76 14.69 354.36 18.11 354.3 22.15 352.6 25.53 351.36 28.01 348.76 29.87 345.67 29.93 343.53 29.97 341.38 29.92 339.24 29.92M360.91 12.34C362.28 10.92 364.05 10.06 365.97 10.06 370.35 10.06 373.91 14.53 373.91 20.05 373.91 25.57 370.35 30.04 365.97 30.04 361.58 30.04 358.02 25.57 358.02 20.05 358.02 16.95 359.15 14.17 360.91 12.34M389.04 22.37L394.51 22.37C394.51 23.54 394.63 24.84 394.01 26.04 393.49 27.05 392.57 27.92 391.61 28.6 390.1 29.66 388.07 30.11 386.13 29.96 384.17 29.8 382.36 29.03 381.08 27.76 378.87 25.6 377.94 22.63 378 19.76 378.06 17.12 378.97 14.45 380.97 12.4 382.82 10.5 385.95 9.84 388.74 10.26 391.53 10.67 393.35 12.87 394.51 14.89M410.76 10.24L398.61 10.24 398.61 29.95 410.76 29.95M398.61 19.63L406.09 19.63" /><path fill="none" stroke="#000000" d="M324.11 220.23C324.11 223.59 324.11 226.29 324.11 229.65 324.11 230.47 324.2 231.43 324.64 232.16 325.24 233.14 326.3 233.24 327.37 233.24M322.16 224.13L326.72 224.13M332.86 224.17C333.39 223.94 333.97 223.81 334.57 223.81 337.02 223.81 339.01 225.93 339.01 228.55 339.01 231.16 337.02 233.28 334.57 233.28 332.13 233.28 330.14 231.16 330.14 228.55 330.14 227.07 330.77 225.76 331.75 224.89 332.09 224.6 332.46 224.36 332.86 224.17M349.55 220.23C349.55 223.59 349.55 226.29 349.55 229.65 349.55 230.47 349.64 231.43 350.08 232.16 350.68 233.14 351.74 233.24 352.81 233.24M347.6 224.13L352.16 224.13M355.58 220L355.58 233.24M355.58 226.73C356.28 226.03 356.88 225.21 357.72 224.65 358.92 223.84 360.59 223.83 361.76 224.69 362.41 225.17 362.62 226.15 362.7 226.92 362.81 227.88 362.74 228.85 362.74 229.81 362.74 230.95 362.74 232.1 362.74 233.24M373.15 231.1C372.4 232.34 371.13 233.16 369.69 233.16 367.39 233.16 365.52 231.07 365.52 228.49 365.52 225.92 367.39 223.83 369.69 223.83 372 223.83 373.87 225.92 373.87 228.49L366.04 228.49M382.46 223.91L382.46 233.14M382.46 226.55C383.13 225.76 383.74 224.79 384.61 224.28 385.55 223.74 386.73 223.7 387.67 224.27 388.33 224.67 388.66 225.72 388.66 226.55L388.66 233.14M388.66 226.55C389.89 225.1 391.12 223.35 393.1 223.95 394.25 224.3 394.85 225.43 394.85 226.55L394.85 233.14M400.28 224.17C400.81 223.94 401.39 223.81 401.99 223.81 404.44 223.81 406.43 225.93 406.43 228.55 406.43 231.16 404.44 233.28 401.99 233.28 399.55 233.28 397.56 231.16 397.56 228.55 397.56 227.07 398.19 225.76 399.17 224.89 399.51 224.6 399.88 224.36 400.28 224.17M411.88 224.17C412.41 223.94 412.99 223.81 413.59 223.81 416.04 223.81 418.03 225.93 418.03 228.55 418.03 231.16 416.04 233.28 413.59 233.28 411.15 233.28 409.16 231.16 409.16 228.55 409.16 227.07 409.79 225.76 410.77 224.89 411.11 224.6 411.48 224.36 411.88 224.17M420.95 226.27C422.38 224.82 423.53 223.35 425.82 223.95 427.14 224.3 427.84 225.43 427.84 226.55L427.84 233.14M420.76 223.91L420.76 233.14" /><path fill="none" stroke="#000000" d="M323.14 110L323.14 136.23M326.76 110L326.76 136.23M331.07 115C328.59 112.36 325.45 111.41 321.93 112.43 318.11 113.53 317.3 117.94 320.85 120.15 323.39 121.74 326.65 121.87 329.12 123.7 332.52 126.22 331.38 130.91 327.5 132.02 323.98 133.02 320.95 132.14 318.41 129.45M337.49 115.11C338.7 113.69 340.25 112.83 341.94 112.83 345.81 112.83 348.94 117.3 348.94 122.81 348.94 128.33 345.81 132.79 341.94 132.79 338.07 132.79 334.94 128.33 334.94 122.81 334.94 119.71 335.93 116.94 337.49 115.11M354.32 131.93C354.32 132.37 353.96 132.72 353.52 132.72 353.09 132.72 352.73 132.37 352.73 131.93 352.73 131.49 353.08 131.13 353.52 131.13 353.96 131.13 354.32 131.49 354.32 131.93ZM367.73 132.64L367.73 112.68 358.22 125.99 372.48 125.99M376.28 116.57C378.21 115.6 379.52 114.28 381.03 112.77L381.03 132.73M384.92 112.83L398.23 112.83 388.72 132.79M414.27 119.38C413.79 120.81 413.49 122.16 412.37 123.24 411.12 124.43 409.36 125.12 407.63 124.98 405.2 124.79 402.98 123.01 402.27 120.68 401.56 118.36 402.4 115.64 404.3 114.12 405.91 112.84 408.21 112.5 410.16 113.18 412.63 114.04 413.69 116.19 414.07 118.64 414.57 121.84 414.33 125.16 413.36 128.26 412.45 131.18 410.27 132.94 407.07 132.64 405.09 132.45 403.81 131.59 402.86 129.83M424.4 112.6C422.58 112.6 420.64 113.47 419.88 114.62 419.13 115.76 418.88 117.1 419.58 118.29 420.41 119.69 422.05 120.38 423.62 120.76 425.2 121.14 426.86 121.32 428.29 122.08 430.04 123.01 431.29 124.81 431.55 126.77 431.76 128.36 431.28 130.09 430.09 131.17 428.94 132.21 427.31 132.52 425.76 132.63 423.34 132.79 420.59 132.43 419.1 130.52 417.77 128.83 417.87 126.29 419.01 124.47 420.16 122.65 422.17 121.51 424.26 121.02 425.26 120.79 426.3 120.69 427.3 120.41 428.29 120.13 429.28 119.65 429.89 118.82 430.82 117.56 430.98 115.64 429.95 114.46 428.8 113.12 426.15 112.6 424.4 112.6Z" /><path fill="none" stroke="#000000" d="M90.23 260L85.59 279.8 80.89 260 76.25 279.8 71.55 260M105.73 276.8C104.62 278.66 102.7 279.89 100.55 279.89 97.09 279.89 94.28 276.76 94.28 272.89 94.28 269.03 97.09 265.89 100.55 265.89 104 265.89 106.81 269.03 106.81 272.89L95.06 272.89M123.06 265.79L123.06 279.9M123.06 268.81C121.47 266.55 118.66 264.91 115.19 266.24 112.95 267.09 111.66 268.85 111.09 271.15 110.34 274.19 111.88 277.58 114.53 279.15 117.84 281.12 121.4 279.31 123.06 276.87M130.13 260.49C130.13 265.53 130.13 269.59 130.13 274.63 130.13 275.86 130.25 277.29 130.93 278.39 131.81 279.87 133.41 280.01 135 280.01M127.19 266.34L134.03 266.34M139.17 260.15L139.17 280.01M139.17 270.25C140.22 269.19 141.13 267.96 142.37 267.12 144.18 265.91 146.69 265.89 148.44 267.19 149.42 267.91 149.73 269.38 149.84 270.53 150 271.97 149.91 273.43 149.91 274.87 149.91 276.58 149.91 278.29 149.91 280.01M165.53 276.8C164.41 278.66 162.5 279.89 160.34 279.89 156.88 279.89 154.07 276.76 154.07 272.89 154.07 269.03 156.88 265.89 160.34 265.89 163.8 265.89 166.59 269.03 166.59 272.89L154.86 272.89M170.69 265.88L170.69 280.08M170.69 271.74C171.07 270.6 171.5 269.34 172.14 268.31 172.69 267.45 173.41 266.73 174.26 266.33 175.72 265.66 177.62 265.88 178.45 267.53" /><path fill="none" stroke="#000000" d="M108.2 472.04C107.74 471.09 107.25 470.49 106.21 470.21 105.19 469.94 104.02 469.93 103 470.2 102.16 470.42 101.23 471.11 101.2 472.1 101.15 474.47 104.98 474.26 106.36 474.81 107.42 475.23 108.4 476.29 108.19 477.44 107.92 478.93 106.18 479.4 104.94 479.47 103.32 479.57 101.8 478.99 101.04 477.42M110.96 470.02C110.96 470.02 110.96 476.32 110.96 476.34 110.96 477.69 111.4 478.31 111.76 478.73 112.52 479.65 114.54 479.52 115.16 479.31 116.69 478.8 117.25 477.67 118.12 476.76M118.12 470.02L118.12 479.46M121.05 472.46C122.48 471.01 123.63 469.54 125.92 470.14 127.24 470.49 127.94 471.62 127.94 472.74L127.94 479.33M120.86 470.1L120.86 479.33M130.87 472.46C132.3 471.01 133.45 469.54 135.74 470.14 137.06 470.49 137.76 471.62 137.76 472.74L137.76 479.33M130.68 470.1L130.68 479.33M141.15 470.05L145.06 479.52M148.96 470.05L145.06 479.52C144.13 481.33 143.38 483.05 141.36 483.91 141.07 484.03 140.8 484 140.5 484" /><path fill="none" stroke="#000000" d="M110.81 356.16C107.82 350.16 98.34 349.58 94.74 355.52 91.44 360.97 91.17 368.8 92.15 374.9 92.5 377.11 93.09 379.35 94.49 381.09 95.18 381.94 96.04 382.65 96.99 383.2 100.43 385.18 105.04 384.89 108.2 382.5 111.37 380.11 112.9 375.75 111.93 371.9 110.96 368.05 107.55 364.94 103.63 364.34 100.45 363.85 97.09 365.02 94.82 367.28 93.05 369.05 92.57 371.28 91.8 373.59M137.46 351.01L121.62 351.01C121.62 351.01 120.04 365.27 120.04 365.27 120.07 364.56 122.53 363.43 123.09 363.18 124.32 362.63 125.66 362.3 127 362.21 129.72 362.04 132.9 362.27 135.35 363.54 139.79 365.85 141.65 372.29 140.09 376.85 138.61 381.17 134.61 383.85 130.15 384.28 125.78 384.7 119.36 383.06 118.6 377.92M146.95 355.7C146.95 352.55 149.5 350 152.65 350 155.8 350 158.35 352.55 158.35 355.7 158.35 358.85 155.8 361.4 152.65 361.4 149.5 361.4 146.95 358.85 146.95 355.7Z" /><path fill="none" stroke="#000000" d="M354.88 262.89C352.31 260.33 349.07 259.4 345.43 260.39 341.48 261.46 340.65 265.74 344.31 267.89 346.94 269.42 350.31 269.55 352.86 271.33 356.38 273.78 355.2 278.33 351.19 279.4 347.55 280.38 344.41 279.52 341.79 276.91M359.07 260.09L359.07 280.3M374.75 276.79C373.63 278.65 371.72 279.88 369.56 279.88 366.1 279.88 363.3 276.75 363.3 272.88 363.3 269.02 366.1 265.88 369.56 265.88 373.02 265.88 375.82 269.02 375.82 272.88L364.08 272.88M391.37 276.79C390.25 278.65 388.34 279.88 386.18 279.88 382.72 279.88 379.92 276.75 379.92 272.88 379.92 269.02 382.72 265.88 386.18 265.88 389.64 265.88 392.44 269.02 392.44 272.88L380.7 272.88M396.54 265.86L396.54 286.3M396.54 276.93C398.07 279.18 400.78 280.8 404.11 279.49 406.25 278.64 407.48 276.89 408.03 274.62 408.75 271.6 407.28 268.24 404.74 266.69 401.55 264.74 398.15 266.53 396.54 268.94" /><path fill="none" stroke="#000000" d="M336.57 470L336.57 483.48M347.5 473.8L347.5 483.2M347.5 475.82C346.44 474.3 344.56 473.22 342.25 474.1 340.76 474.67 339.9 475.84 339.52 477.37 339.01 479.4 340.05 481.66 341.81 482.71 344.02 484.02 346.38 482.81 347.5 481.19M357.41 475.89C356.95 474.94 356.46 474.34 355.43 474.06 354.4 473.79 353.24 473.78 352.21 474.05 351.38 474.27 350.44 474.96 350.41 475.95 350.37 478.32 354.19 478.11 355.57 478.66 356.63 479.08 357.62 480.14 357.4 481.29 357.13 482.78 355.39 483.25 354.15 483.32 352.53 483.42 351.01 482.84 350.25 481.27M362.13 470.27C362.13 473.63 362.13 476.33 362.13 479.69 362.13 480.51 362.21 481.47 362.65 482.2 363.25 483.18 364.31 483.28 365.38 483.28M360.18 474.17L364.74 474.17M374.2 476.31C375.63 474.86 376.78 473.39 379.07 473.99 380.39 474.34 381.09 475.47 381.09 476.59L381.09 483.18M374.01 473.95L374.01 483.18M384.31 473.68L384.31 483.39M383.83 470.8C383.83 470.5 384.07 470.27 384.37 470.27 384.65 470.27 384.89 470.5 384.89 470.8 384.89 471.09 384.65 471.32 384.37 471.32 384.07 471.32 383.83 471.09 383.83 470.8ZM395.5 473.85C395.5 473.85 395.5 483.88 395.5 483.9 395.5 485.51 394 487.02 392.13 487.27 390.79 487.44 388.31 486.98 388.19 484.62M395.37 475.87C394.36 474.37 392.57 473.29 390.39 474.16 388.99 474.73 388.18 475.89 387.81 477.41 387.33 479.43 388.31 481.67 389.97 482.71 392.07 484.01 394.31 482.81 395.37 481.2M398.27 470.04L398.27 483.28M398.27 476.77C398.97 476.07 399.57 475.25 400.41 474.69 401.62 473.88 403.28 473.87 404.45 474.73 405.11 475.21 405.31 476.19 405.39 476.96 405.5 477.92 405.44 478.89 405.44 479.85 405.44 480.99 405.44 482.14 405.44 483.28M410.16 470.27C410.16 473.63 410.16 476.33 410.16 479.69 410.16 480.51 410.25 481.47 410.69 482.2 411.29 483.18 412.36 483.28 413.42 483.28M408.21 474.17L412.77 474.17" /><path fill="none" stroke="#000000" d="M308.09 350C305.05 350 301.82 351.46 300.56 353.37 299.31 355.28 298.88 357.5 300.06 359.5 301.44 361.82 304.17 362.98 306.8 363.61 309.43 364.24 312.19 364.53 314.58 365.81 317.49 367.36 319.57 370.36 320 373.63 320.35 376.28 319.56 379.16 317.58 380.95 315.65 382.69 312.93 383.2 310.35 383.38 306.32 383.66 301.74 383.05 299.25 379.87 297.04 377.05 297.21 372.82 299.11 369.79 301.02 366.76 304.37 364.86 307.85 364.04 309.53 363.65 311.26 363.49 312.92 363.02 314.58 362.56 316.22 361.76 317.24 360.37 318.79 358.28 319.05 355.08 317.35 353.11 315.42 350.87 311 350 308.09 350ZM326.44 350.38L326.44 383.49M326.44 367.22C328.19 365.46 329.7 363.41 331.78 362.01 334.8 359.99 338.97 359.96 341.89 362.12 343.52 363.33 344.03 365.77 344.25 367.69 344.51 370.09 344.34 372.52 344.34 374.93 344.34 377.78 344.34 380.63 344.34 383.48M369.11 350.26L386.54 350.26 377.03 362.85C381.34 362.85 385.16 363.11 387.19 367.58 388.29 369.99 388.32 372.78 387.67 375.34 387.33 376.69 386.8 378 385.98 379.13 382.79 383.51 375.67 384.84 371.12 382.5 369.32 381.57 367.19 379.5 365.94 377.02M413.6 355.26C410.61 349.26 401.13 348.68 397.53 354.62 394.23 360.07 393.96 367.9 394.94 374 395.29 376.21 395.88 378.45 397.28 380.19 397.97 381.04 398.83 381.75 399.78 382.3 403.22 384.28 407.83 383.99 410.99 381.6 414.16 379.21 415.69 374.85 414.72 371 413.75 367.15 410.34 364.04 406.42 363.44 403.24 362.95 399.88 364.12 397.61 366.38 395.84 368.15 395.36 370.38 394.59 372.69M421.39 360.16L421.39 383.24M421.39 366.75C423.07 364.78 424.59 362.36 426.76 361.09 429.11 359.73 432.07 359.65 434.41 361.06 436.08 362.07 436.88 364.69 436.88 366.75L436.88 383.24M436.88 366.75C439.97 363.13 443.05 358.76 448 360.26 450.85 361.13 452.37 363.97 452.37 366.75L452.37 383.24" /><path fill="none" stroke="#000000" d="M250 0L250 500" /><path fill="none" stroke="#000000" d="M0 250L500 250" /></g></svg>